# xmcd CD database file
#
# Track frame offsets:
#	150
#	27489
#	59454
#	89241
#	137529
#	165810
#	189265
#	220909
#	264903
#
# Disc length: 4008 seconds
#
# Revision: 0
# Processed by: cddbd v1.5.2PL0 Copyright (c) Steve Scherf et al.
# Submitted via: CDex 1.70beta2
#
DISCID=770fa609
DTITLE=André Larue Sextet - Larue du Jazz
DYEAR=2007
DGENRE=Jazz
TTITLE0=Coup de Phil
TTITLE1=Sauvabelin
TTITLE2=Lancelot
TTITLE3=Hakan Dodu
TTITLE4=In utero
TTITLE5=Silverado
TTITLE6=Sérénade d'Octobre
TTITLE7=La ruelle du diable
TTITLE8=Tu tires ou tu pointes?
EXTD=YEAR: 2007
EXTT0=
EXTT1=
EXTT2=
EXTT3=
EXTT4=
EXTT5=
EXTT6=
EXTT7=
EXTT8=
PLAYORDER=
